<?xml version="1.0" encoding="UTF-8" standalone="no"?>
<svg
   xmlns:dc="http://purl.org/dc/elements/1.1/"
   xmlns:cc="http://creativecommons.org/ns#"
   xmlns:rdf="http://www.w3.org/1999/02/22-rdf-syntax-ns#"
   xmlns:svg="http://www.w3.org/2000/svg"
   xmlns="http://www.w3.org/2000/svg"
   xmlns:sodipodi="http://sodipodi.sourceforge.net/DTD/sodipodi-0.dtd"
   xmlns:inkscape="http://www.inkscape.org/namespaces/inkscape"
   height="512pt"
   viewBox="0 -8 512 512"
   width="512pt"
   version="1.1"
   id="svg38"
   sodipodi:docname="rifa.svg"
   inkscape:version="0.92.4 5da689c313, 2019-01-14">
  <metadata
     id="metadata44">
    <rdf:RDF>
      <cc:Work
         rdf:about="">
        <dc:format>image/svg+xml</dc:format>
        <dc:type
           rdf:resource="http://purl.org/dc/dcmitype/StillImage" />
      </cc:Work>
    </rdf:RDF>
  </metadata>
  <defs
     id="defs42" />
  <sodipodi:namedview
     pagecolor="#ffffff"
     bordercolor="#666666"
     borderopacity="1"
     objecttolerance="10"
     gridtolerance="10"
     guidetolerance="10"
     inkscape:pageopacity="0"
     inkscape:pageshadow="2"
     inkscape:window-width="1872"
     inkscape:window-height="1024"
     id="namedview40"
     showgrid="false"
     inkscape:zoom="0.9777961"
     inkscape:cx="172.63571"
     inkscape:cy="347.58004"
     inkscape:window-x="1072"
     inkscape:window-y="28"
     inkscape:window-maximized="1"
     inkscape:current-layer="g863" />
  <path
     d="m488.46875 143.773438h-464.9375c-8.851562 0-16.03125 7.179687-16.03125 16.035156v176.351562c0 8.855469 7.179688 16.035156 16.03125 16.035156h464.9375c8.851562 0 16.03125-7.179687 16.03125-16.035156v-176.351562c0-8.855469-7.179688-16.035156-16.03125-16.035156zm0 0"
     fill="#ffe07d"
     id="path2" />
  <path
     d="m408.304688 272.03125h32.066406v32.066406h-32.066406zm0 0"
     fill="#e2a975"
     id="path4" />
  <path
     d="m424.339844 247.984375c-8.855469 0-16.03125-7.179687-16.03125-16.03125v-32.066406h32.0625v32.066406c0 8.851563-7.179688 16.03125-16.03125 16.03125zm0 0"
     fill="#fff"
     id="path6" />
  <path
     d="m31.546875 247.984375v-104.210937h-8.015625c-8.851562 0-16.03125 7.179687-16.03125 16.03125v176.355468c0 8.855469 7.179688 16.03125 16.03125 16.03125h464.9375c8.851562 0 16.03125-7.175781 16.03125-16.03125v-8.015625h-392.789062c-44.273438 0-80.164063-35.886719-80.164063-80.160156zm0 0"
     fill="#ffd064"
     id="path8" />
  <path
     d="m488.46875 136.273438h-16.03125c-4.140625 0-7.5 3.359374-7.5 7.5 0 4.144531 3.359375 7.5 7.5 7.5h16.03125c4.703125 0 8.53125 3.828124 8.53125 8.535156v176.351562c0 4.707032-3.828125 8.53125-8.53125 8.53125h-136.792969v-8.53125c0-4.140625-3.355469-7.5-7.5-7.5-4.140625 0-7.5 3.359375-7.5 7.5v8.53125h-313.144531c-4.703125 0-8.53125-3.828125-8.53125-8.53125v-176.351562c0-4.707032 3.828125-8.535156 8.53125-8.535156h313.144531v8.535156c0 4.140625 3.359375 7.5 7.5 7.5 4.144531 0 7.5-3.359375 7.5-7.5v-8.535156h88.691407c4.144531 0 7.5-3.355469 7.5-7.5 0-4.140626-3.355469-7.5-7.5-7.5h-416.835938c-12.972656 0-23.53125 10.558593-23.53125 23.535156v176.351562c0 12.976563 10.558594 23.53125 23.53125 23.53125h464.9375c12.976562 0 23.53125-10.554687 23.53125-23.53125v-176.351562c0-12.976563-10.558594-23.535156-23.53125-23.535156zm0 0"
     id="path10" />
  <path
     d="m351.675781 239.96875c0-4.144531-3.355469-7.5-7.5-7.5-4.140625 0-7.5 3.355469-7.5 7.5v16.03125c0 4.140625 3.359375 7.5 7.5 7.5 4.144531 0 7.5-3.359375 7.5-7.5zm0 0"
     id="path12" />
  <path
     d="m351.675781 191.871094c0-4.140625-3.355469-7.5-7.5-7.5-4.140625 0-7.5 3.359375-7.5 7.5v16.03125c0 4.144531 3.359375 7.5 7.5 7.5 4.144531 0 7.5-3.355469 7.5-7.5zm0 0"
     id="path14" />
  <path
     d="m344.175781 280.566406c-4.140625 0-7.5 3.355469-7.5 7.5v16.03125c0 4.140625 3.359375 7.5 7.5 7.5 4.144531 0 7.5-3.359375 7.5-7.5v-16.03125c0-4.144531-3.355469-7.5-7.5-7.5zm0 0"
     id="path16" />
  <path
     d="m256 111.195312c4.140625 0 7.5-3.359374 7.5-7.5v-96.195312c0-4.140625-3.359375-7.5-7.5-7.5s-7.5 3.359375-7.5 7.5v96.191406c0 4.144532 3.359375 7.503906 7.5 7.503906zm0 0"
     id="path24" />
  <path
     d="m304.667969 118.203125c1.179687.679687 2.46875 1.003906 3.738281 1.003906 2.59375 0 5.117188-1.34375 6.503906-3.753906l27.746094-48.089844c2.070312-3.589843.839844-8.175781-2.746094-10.246093-3.589844-2.070313-8.175781-.839844-10.246094 2.75l-27.746093 48.09375c-2.070313 3.585937-.839844 8.171874 2.75 10.242187zm0 0"
     id="path26" />
  <path
     d="m197.089844 115.457031c1.386718 2.40625 3.910156 3.753907 6.503906 3.753907 1.269531 0 2.558594-.324219 3.738281-1.003907 3.589844-2.070312 4.820313-6.65625 2.75-10.246093l-27.746093-48.09375c-2.070313-3.585938-6.65625-4.816407-10.246094-2.75-3.585938 2.070312-4.816406 6.660156-2.75 10.246093zm0 0"
     id="path28" />
  <path
     d="m256 384.773438c-4.140625 0-7.5 3.359374-7.5 7.5v96.195312c0 4.140625 3.359375 7.5 7.5 7.5s7.5-3.359375 7.5-7.5v-96.195312c0-4.140626-3.359375-7.5-7.5-7.5zm0 0"
     id="path30" />
  <path
     d="m207.332031 377.765625c-3.585937-2.070313-8.171875-.839844-10.242187 2.75l-27.75 48.09375c-2.070313 3.585937-.835938 8.171875 2.75 10.242187 1.179687.683594 2.46875 1.007813 3.742187 1.007813 2.589844 0 5.113281-1.347656 6.503907-3.753906l27.746093-48.09375c2.070313-3.589844.839844-8.175781-2.75-10.246094zm0 0"
     id="path32" />
  <path
     d="m314.910156 380.511719c-2.070312-3.589844-6.65625-4.820313-10.246094-2.75-3.585937 2.070312-4.816406 6.65625-2.746093 10.246093l27.746093 48.09375c1.390626 2.40625 3.910157 3.75 6.503907 3.75 1.269531 0 2.558593-.324218 3.738281-1.003906 3.589844-2.070312 4.820312-6.65625 2.75-10.246094zm0 0"
     id="path34" />
  <path
     d="m446.636719 239.453125h1.75c17.394531 0 31.546875-14.152344 31.546875-31.550781v-8.015625c0-4.140625-3.355469-7.5-7.5-7.5h-96.191406c-4.144532 0-7.5 3.359375-7.5 7.5v8.015625c0 17.398437 14.152343 31.550781 31.546874 31.550781h1.75c2.34375 6.949219 7.847657 12.453125 14.800782 14.800781v10.277344h-8.53125c-4.144532 0-7.5 3.359375-7.5 7.5v32.066406c0 4.140625 3.355468 7.5 7.5 7.5h32.0625c4.140625 0 7.5-3.359375 7.5-7.5v-32.066406c0-4.140625-3.359375-7.5-7.5-7.5h-8.53125v-10.277344c6.949218-2.347656 12.453125-7.851562 14.796875-14.800781zm-13.765625 57.144531h-17.0625v-17.066406h17.0625zm32.066406-88.695312c0 9.125-7.425781 16.550781-16.550781 16.550781h-.515625v-17.066406h17.066406zm-81.195312 0v-.515625h17.066406v17.066406h-.519532c-9.125 0-16.546874-7.425781-16.546874-16.550781zm32.066406-.515625h17.0625v24.566406c0 4.703125-3.828125 8.53125-8.53125 8.53125s-8.53125-3.828125-8.53125-8.53125zm0 0"
     id="path36" />
  <g
     id="g863"
     transform="translate(-2.1694914,-0.57430249)">
    <g
       aria-label="RIFA"
       style="font-style:normal;font-weight:normal;font-size:119.84133911px;line-height:1.25;font-family:sans-serif;letter-spacing:0px;word-spacing:0px;fill:#000000;fill-opacity:1;stroke:none;stroke-width:2.99603367"
       id="text853">
      <path
         d="m 39.160731,253.8587 c 0,5.15317 4.074606,9.22778 9.227784,9.22778 5.153177,0 9.227783,-4.07461 9.227783,-9.22778 v -18.33573 h 14.740484 l 17.976201,22.76986 c 2.157144,2.75635 4.913495,4.79365 9.107942,4.79365 4.434125,0 8.748415,-3.35556 8.748415,-8.50874 0,-2.87619 -1.19841,-4.79365 -2.99603,-7.07063 L 92.370286,231.92773 c 10.186514,-4.19445 16.777784,-12.34366 16.777784,-25.5262 v -0.23969 c 0,-7.90952 -2.51666,-14.5008 -7.19048,-19.17461 -5.512698,-5.5127 -13.781751,-8.50874 -24.44763,-8.50874 H 48.388515 c -5.153178,0 -9.227784,4.07461 -9.227784,9.22779 z m 18.455567,-34.63415 v -24.08811 h 18.335725 c 8.9881,0 14.500802,4.07461 14.500802,11.98413 v 0.23969 c 0,7.07064 -5.153178,11.86429 -14.141278,11.86429 z"
         style="font-style:normal;font-variant:normal;font-weight:normal;font-stretch:normal;line-height:1.25;font-family:'Gotham Rounded';-inkscape-font-specification:'Gotham Rounded';stroke-width:2.99603367"
         id="path834" />
      <path
         d="m 126.60372,253.8587 c 0,5.15317 4.0746,9.22778 9.22778,9.22778 5.15318,0 9.22778,-4.07461 9.22778,-9.22778 v -66.87147 c 0,-5.15318 -4.0746,-9.22778 -9.22778,-9.22778 -5.15318,0 -9.22778,4.0746 -9.22778,9.22778 z"
         style="font-style:normal;font-variant:normal;font-weight:normal;font-stretch:normal;line-height:1.25;font-family:'Gotham Rounded';-inkscape-font-specification:'Gotham Rounded';stroke-width:2.99603367"
         id="path836" />
      <path
         d="m 166.02403,253.8587 c 0,5.15317 4.0746,9.22778 9.22778,9.22778 5.15318,0 9.22778,-4.07461 9.22778,-9.22778 v -23.96827 h 32.35717 c 4.67381,0 8.38889,-3.71508 8.38889,-8.38889 0,-4.67382 -3.71508,-8.3889 -8.38889,-8.3889 h -32.35717 v -17.85636 h 37.75003 c 4.67381,0 8.38889,-3.71508 8.38889,-8.38889 0,-4.67381 -3.71508,-8.3889 -8.38889,-8.3889 h -46.97781 c -5.15318,0 -9.22778,4.07461 -9.22778,9.22779 z"
         style="font-style:normal;font-variant:normal;font-weight:normal;font-stretch:normal;line-height:1.25;font-family:'Gotham Rounded';-inkscape-font-specification:'Gotham Rounded';stroke-width:2.99603367"
         id="path838" />
      <path
         d="m 231.19338,254.4579 c 0,4.79366 3.71508,8.62858 8.50874,8.62858 3.83492,0 6.95079,-2.15714 8.50873,-5.75238 l 5.87223,-13.78176 h 36.91113 l 5.63254,13.18255 c 1.67778,3.83492 4.55397,6.35159 8.86826,6.35159 4.9135,0 8.74842,-3.95476 8.74842,-8.86826 0,-1.19841 -0.35952,-2.39683 -0.95873,-3.71508 l -29.24129,-66.03258 c -2.0373,-4.55397 -5.63254,-7.31032 -10.66588,-7.31032 h -1.07857 c -5.03334,0 -8.74842,2.75635 -10.78572,7.31032 l -29.24129,66.03258 c -0.5992,1.31825 -1.07857,2.63651 -1.07857,3.95476 z m 29.72065,-27.20398 11.62461,-27.68335 11.62461,27.68335 z"
         style="font-style:normal;font-variant:normal;font-weight:normal;font-stretch:normal;line-height:1.25;font-family:'Gotham Rounded';-inkscape-font-specification:'Gotham Rounded';stroke-width:2.99603367"
         id="path840" />
    </g>
    <g
       aria-label="GEN"
       transform="scale(0.98008267,1.0203221)"
       style="font-style:normal;font-weight:normal;font-size:55.83414841px;line-height:1.25;font-family:sans-serif;letter-spacing:0px;word-spacing:0px;fill:#000000;fill-opacity:1;stroke:none;stroke-width:1.39585376"
       id="text857">
      <path
         d="m 142.04315,313.58059 c 5.86258,0 10.49682,-1.95419 13.67936,-3.90839 2.06587,-1.22835 3.01505,-2.95921 3.01505,-5.47174 v -9.49181 c 0,-2.40087 -1.89836,-4.29923 -4.29923,-4.29923 h -9.82681 c -2.06586,0 -3.74089,1.67503 -3.74089,3.74089 0,2.06586 1.67503,3.68505 3.74089,3.68505 h 5.80675 v 5.58342 c -2.17753,1.56335 -4.96924,2.34503 -8.09595,2.34503 -6.92344,0 -11.83684,-5.24841 -11.83684,-12.39518 v -0.11167 c 0,-6.64426 4.96924,-12.17184 11.22266,-12.17184 3.68506,0 6.19759,1.00501 8.54263,2.68004 0.61417,0.44667 1.39585,0.89334 2.6242,0.89334 2.34504,0 4.2434,-1.89836 4.2434,-4.24339 0,-1.67503 -0.94918,-2.84754 -1.78669,-3.46172 -3.51756,-2.4567 -7.42595,-3.79672 -13.34437,-3.79672 -11.83684,0 -20.49113,9.10097 -20.49113,20.21196 v 0.11167 c 0,11.55767 8.37512,20.10029 20.54697,20.10029 z"
         style="font-style:normal;font-variant:normal;font-weight:normal;font-stretch:normal;font-family:'Gotham Rounded';-inkscape-font-specification:'Gotham Rounded';fill:#000000;stroke-width:1.39585376"
         id="path843" />
      <path
         d="m 171.25575,312.91058 h 21.94282 c 2.1217,0 3.85256,-1.67502 3.85256,-3.79672 0,-2.1217 -1.73086,-3.85255 -3.85256,-3.85255 h -17.69942 v -8.20762 h 14.90771 c 2.1217,0 3.85256,-1.67503 3.85256,-3.79673 0,-2.12169 -1.73086,-3.85255 -3.85256,-3.85255 h -14.90771 v -7.92845 h 17.42025 c 2.1217,0 3.85256,-1.67503 3.85256,-3.79672 0,-2.1217 -1.73086,-3.85256 -3.85256,-3.85256 h -21.66365 c -2.40087,0 -4.29923,1.89836 -4.29923,4.29923 v 30.48544 c 0,2.40087 1.89836,4.29923 4.29923,4.29923 z"
         style="font-style:normal;font-variant:normal;font-weight:normal;font-stretch:normal;font-family:'Gotham Rounded';-inkscape-font-specification:'Gotham Rounded';fill:#000000;stroke-width:1.39585376"
         id="path845" />
      <path
         d="m 204.36104,309.00219 c 0,2.34504 1.89836,4.2434 4.2434,4.2434 2.34503,0 4.24339,-1.89836 4.24339,-4.2434 v -20.9378 l 17.19692,22.55699 c 1.17252,1.50753 2.40087,2.51254 4.46673,2.51254 h 0.27917 c 2.40087,0 4.29923,-1.89836 4.29923,-4.29923 v -31.09962 c 0,-2.34503 -1.89836,-4.2434 -4.24339,-4.2434 -2.34504,0 -4.2434,1.89837 -4.2434,4.2434 v 20.15613 l -16.58274,-21.77532 c -1.17252,-1.50752 -2.40087,-2.51254 -4.46673,-2.51254 h -0.89335 c -2.40087,0 -4.29923,1.89836 -4.29923,4.29923 z"
         style="font-style:normal;font-variant:normal;font-weight:normal;font-stretch:normal;font-family:'Gotham Rounded';-inkscape-font-specification:'Gotham Rounded';fill:#000000;stroke-width:1.39585376"
         id="path847" />
    </g>
  </g>
</svg>
