<?xml version="1.0" standalone="no"?>
<!DOCTYPE svg PUBLIC "-//W3C//DTD SVG 20010904//EN"
 "http://www.w3.org/TR/2001/REC-SVG-20010904/DTD/svg10.dtd">
<svg version="1.0" xmlns="http://www.w3.org/2000/svg"
 width="700.000000pt" height="700.000000pt" viewBox="0 0 700.000000 700.000000"
 preserveAspectRatio="xMidYMid meet">
<metadata>
Created by potrace 1.11, written by Peter Selinger 2001-2013
</metadata>
<g transform="translate(0.000000,700.000000) scale(0.100000,-0.100000)"
fill="#000000" stroke="none">
<path d="M3448 6874 c-15 -8 -32 -23 -38 -34 -6 -12 -10 -257 -10 -712 0 -641
2 -695 18 -714 49 -61 140 -55 170 11 16 34 17 1386 2 1416 -13 23 -61 49 -92
49 -13 -1 -35 -7 -50 -16z"/>
<path d="M2344 6102 c-32 -25 -47 -61 -40 -93 6 -32 377 -681 409 -716 59 -65
171 -19 171 71 0 38 -369 686 -415 729 -35 32 -92 36 -125 9z"/>
<path d="M4531 6093 c-46 -43 -415 -691 -415 -729 0 -90 112 -136 171 -71 29
31 400 678 409 711 22 90 -95 154 -165 89z"/>
<path d="M240 5016 c-93 -25 -182 -104 -216 -192 -18 -47 -19 -94 -19 -1329
l0 -1280 28 -57 c39 -80 111 -142 194 -168 65 -20 88 -20 3273 -20 3185 0
3208 0 3273 20 83 26 155 88 194 168 l28 57 0 1285 0 1285 -24 52 c-28 62
-103 136 -169 166 -39 17 -72 22 -184 25 -164 5 -197 0 -232 -35 -20 -19 -26
-36 -26 -67 1 -44 11 -62 50 -89 20 -14 49 -17 168 -17 l144 0 34 -34 34 -34
0 -1251 0 -1251 -29 -32 -29 -33 -960 -3 -960 -2 -4 81 c-3 74 -6 83 -31 105
-37 32 -71 39 -108 23 -48 -19 -69 -62 -69 -142 l0 -67 -2166 2 -2166 3 -29
33 -29 32 0 1250 0 1250 29 32 29 33 2166 3 2166 2 0 -65 c0 -39 6 -78 15 -95
16 -30 61 -60 90 -60 29 0 74 30 90 60 9 17 15 56 15 95 l0 65 618 0 c565 0
620 1 642 17 38 26 49 45 50 80 0 47 -18 80 -55 98 -30 13 -332 15 -2907 14
-2236 0 -2883 -3 -2918 -13z"/>
<path d="M3645 4470 c-64 -20 -85 -58 -305 -555 -234 -529 -231 -519 -170
-580 26 -25 38 -30 80 -30 68 0 95 29 150 160 l44 105 251 0 252 0 49 -112
c39 -89 56 -117 83 -135 64 -43 148 -17 178 55 14 34 14 41 0 83 -29 79 -406
923 -425 948 -43 57 -119 82 -187 61z m134 -496 c39 -95 71 -174 71 -178 0 -3
-70 -6 -156 -6 -121 0 -155 3 -151 13 54 137 152 356 157 350 4 -4 39 -85 79
-179z"/>
<path d="M1770 4452 c-71 -35 -71 -28 -68 -579 3 -481 3 -492 24 -520 26 -34
90 -59 129 -49 15 4 43 22 62 41 l33 33 0 505 c0 496 0 505 -21 531 -25 31
-69 56 -101 56 -13 0 -39 -8 -58 -18z"/>
<path d="M584 4450 c-11 -4 -33 -22 -47 -40 l-27 -32 0 -499 0 -499 33 -36
c40 -44 94 -54 147 -27 58 30 70 67 70 226 l0 137 99 0 99 0 132 -167 c74 -95
147 -178 168 -191 94 -59 211 20 187 127 -3 15 -52 84 -107 152 -90 110 -99
124 -83 133 156 92 211 192 203 370 -3 73 -10 102 -32 148 -50 105 -155 176
-296 199 -69 11 -518 11 -546 -1z m508 -230 c114 -32 153 -177 69 -261 -49
-49 -91 -59 -258 -59 l-143 0 0 165 0 165 148 0 c81 0 164 -5 184 -10z"/>
<path d="M2313 4445 c-18 -8 -42 -29 -53 -47 -19 -32 -20 -49 -20 -519 l0
-486 23 -34 c26 -39 89 -66 130 -55 15 3 42 19 60 35 l32 29 5 194 5 193 247
5 248 5 27 28 c23 22 28 36 28 76 0 59 -28 95 -84 111 -20 5 -134 10 -253 10
l-218 0 0 120 0 120 281 0 281 0 34 34 c28 28 34 41 34 78 0 50 -18 82 -60
103 -41 21 -698 22 -747 0z"/>
<path d="M4638 4341 l-33 -29 -3 -122 c-2 -68 -1 -138 3 -157 10 -53 45 -83
97 -83 93 0 111 38 106 225 l-3 137 -33 29 c-44 39 -90 39 -134 0z"/>
<path d="M5074 4226 c-34 -34 -34 -34 -34 -128 0 -100 17 -183 51 -250 26 -50
101 -133 151 -164 53 -34 150 -64 207 -64 43 0 50 -3 55 -24 11 -43 85 -125
142 -157 l55 -31 -3 -67 -3 -66 -83 -5 c-76 -5 -86 -7 -108 -33 l-24 -28 0
-256 0 -255 34 -34 34 -34 246 0 c262 0 292 5 316 49 6 12 10 119 10 275 l0
255 -24 28 c-22 26 -32 28 -108 33 l-83 5 -3 67 -3 67 40 21 c60 30 109 77
142 136 l29 51 68 5 c116 9 223 71 302 177 56 74 80 159 80 283 0 110 -12 147
-55 166 -19 9 -201 12 -711 12 l-686 0 -34 -34z m844 -352 c2 -174 2 -182 -21
-215 -32 -48 -89 -67 -139 -46 -66 28 -73 49 -76 244 -2 95 -1 180 2 189 5 12
25 14 118 12 l113 -3 3 -181z m-438 60 l0 -116 -37 7 c-104 19 -193 112 -193
200 l0 25 115 0 115 0 0 -116z m873 84 c-18 -102 -101 -183 -194 -190 l-34 -3
-3 113 -3 112 120 0 121 0 -7 -32z m-433 -1063 l0 -115 -115 0 -115 0 0 115 0
115 115 0 115 0 0 -115z"/>
<path d="M4638 3681 l-33 -29 0 -152 0 -152 33 -29 c44 -39 90 -39 134 0 l33
29 3 139 c3 115 1 143 -13 169 -32 60 -105 72 -157 25z"/>
<path d="M1782 3072 c-61 -22 -124 -78 -154 -137 -25 -48 -35 -154 -19 -212
46 -168 228 -245 399 -168 81 36 92 57 92 170 0 115 -9 125 -123 125 -69 0
-87 -3 -100 -18 -41 -45 -4 -92 71 -92 l43 0 -3 -37 c-2 -31 -9 -41 -33 -52
-43 -21 -115 -19 -156 5 -70 40 -98 147 -60 230 39 86 139 114 228 64 50 -28
84 -24 101 13 12 24 11 31 -3 53 -40 61 -187 90 -283 56z"/>
<path d="M2227 3062 c-15 -16 -17 -49 -17 -260 0 -238 0 -241 22 -256 18 -13
53 -16 178 -16 170 0 200 8 200 55 0 48 -21 55 -161 55 l-129 0 0 55 0 55 103
0 c117 0 147 12 147 59 0 46 -15 51 -137 51 l-113 0 0 55 0 55 125 0 c112 0
127 2 145 20 11 11 20 27 20 35 0 8 -9 24 -20 35 -18 18 -33 20 -183 20 -146
0 -166 -2 -180 -18z"/>
<path d="M2727 3062 c-15 -16 -17 -47 -17 -259 0 -220 2 -241 18 -256 24 -22
55 -21 75 1 14 16 17 43 17 171 0 84 4 150 9 147 4 -3 55 -70 112 -148 57 -79
113 -153 126 -165 27 -28 64 -30 86 -5 15 16 17 50 17 263 0 262 -1 269 -50
269 -53 0 -60 -22 -60 -185 l0 -148 -122 164 c-115 154 -125 164 -159 167 -24
2 -40 -3 -52 -16z"/>
<path d="M4670 3046 c-60 -19 -71 -57 -68 -219 l3 -139 33 -29 c44 -39 90 -39
134 0 l33 29 3 137 c4 172 -6 204 -75 224 -17 5 -42 4 -63 -3z"/>
<path d="M2721 1713 c-38 -36 -421 -700 -421 -731 0 -88 105 -135 169 -74 46
42 413 688 414 727 2 89 -99 137 -162 78z"/>
<path d="M4173 1730 c-30 -12 -57 -56 -57 -94 0 -38 369 -685 415 -728 69 -65
187 -1 164 89 -11 45 -383 685 -416 716 -30 28 -65 33 -106 17z"/>
<path d="M3455 1618 c-11 -6 -28 -20 -37 -32 -16 -19 -18 -73 -18 -717 l0
-696 24 -26 c44 -48 108 -48 152 0 l24 26 0 696 c0 644 -2 698 -18 717 -33 42
-86 55 -127 32z"/>
</g>
</svg>
