<?xml version="1.0" standalone="no"?>
<!DOCTYPE svg PUBLIC "-//W3C//DTD SVG 20010904//EN"
 "http://www.w3.org/TR/2001/REC-SVG-20010904/DTD/svg10.dtd">
<svg version="1.0" xmlns="http://www.w3.org/2000/svg"
 width="700.000000pt" height="700.000000pt" viewBox="0 0 700.000000 700.000000"
 preserveAspectRatio="xMidYMid meet">
<metadata>
Created by potrace 1.11, written by Peter Selinger 2001-2013
</metadata>
<g transform="translate(0.000000,700.000000) scale(0.100000,-0.100000)"
fill="#000000" stroke="none">
<path d="M3448 6874 c-15 -8 -32 -23 -38 -34 -6 -12 -10 -257 -10 -712 0 -641
2 -695 18 -714 49 -61 140 -55 170 11 16 34 17 1386 2 1416 -13 23 -61 49 -92
49 -13 -1 -35 -7 -50 -16z"/>
<path d="M2344 6102 c-32 -25 -47 -61 -40 -93 6 -32 377 -681 409 -716 59 -65
171 -19 171 71 0 38 -369 686 -415 729 -35 32 -92 36 -125 9z"/>
<path d="M4531 6093 c-46 -43 -415 -691 -415 -729 0 -90 112 -136 171 -71 29
31 400 678 409 711 22 90 -95 154 -165 89z"/>
<path d="M240 5016 c-93 -25 -182 -104 -216 -192 -18 -47 -19 -94 -19 -1329
l0 -1280 28 -57 c39 -80 111 -142 194 -168 65 -20 88 -20 3273 -20 3185 0
3208 0 3273 20 83 26 155 88 194 168 l28 57 0 1285 0 1285 -24 52 c-28 62
-103 136 -169 166 -39 17 -72 22 -184 25 -164 5 -197 0 -232 -35 -20 -19 -26
-36 -26 -67 1 -44 11 -62 50 -89 20 -14 49 -17 168 -17 l144 0 34 -34 34 -34
0 -1251 0 -1251 -29 -32 -29 -33 -960 -3 -960 -2 -4 81 c-3 74 -6 83 -31 105
-37 32 -71 39 -108 23 -48 -19 -69 -62 -69 -142 l0 -67 -2166 2 -2166 3 -29
33 -29 32 0 1250 0 1250 29 32 29 33 2166 3 2166 2 0 -65 c0 -39 6 -78 15 -95
16 -30 61 -60 90 -60 29 0 74 30 90 60 9 17 15 56 15 95 l0 65 618 0 c565 0
620 1 642 17 38 26 49 45 50 80 0 47 -18 80 -55 98 -30 13 -332 15 -2907 14
-2236 0 -2883 -3 -2918 -13z"/>
<path d="M4638 4341 l-33 -29 -3 -122 c-2 -68 -1 -138 3 -157 10 -53 45 -83
97 -83 93 0 111 38 106 225 l-3 137 -33 29 c-44 39 -90 39 -134 0z"/>
<path d="M708 4244 c-33 -17 -48 -43 -48 -82 0 -16 88 -330 195 -698 179 -617
197 -671 225 -696 51 -47 122 -33 154 30 7 15 75 242 152 504 76 263 141 472
145 465 4 -6 66 -217 139 -467 73 -250 139 -472 147 -493 16 -40 55 -67 95
-67 37 0 85 35 97 72 6 18 96 328 201 688 135 463 189 662 185 682 -4 15 -20
39 -37 53 -41 34 -88 33 -128 -2 -27 -26 -43 -72 -172 -515 -78 -269 -144
-488 -147 -488 -3 0 -69 217 -146 483 -127 436 -143 485 -171 515 -60 60 -147
31 -172 -59 -5 -19 -69 -241 -143 -493 -92 -318 -136 -453 -141 -440 -4 11
-62 206 -128 434 -67 228 -130 446 -141 483 -16 55 -26 72 -52 87 -38 23 -72
25 -109 4z"/>
<path d="M2554 4226 l-34 -34 0 -692 0 -692 34 -34 c54 -54 124 -42 158 26 17
32 18 87 18 698 0 712 0 710 -51 746 -40 27 -86 21 -125 -18z"/>
<path d="M3011 4246 c-51 -28 -50 -12 -51 -744 0 -749 -2 -726 59 -752 39 -16
92 -6 117 21 18 20 19 49 24 533 l5 511 355 -530 c337 -504 357 -530 392 -539
47 -12 94 7 113 45 22 41 22 1376 1 1418 -28 53 -106 67 -153 27 l-28 -24 -5
-514 -5 -513 -352 527 c-194 290 -361 532 -372 537 -27 15 -71 13 -100 -3z"/>
<path d="M5074 4226 c-34 -34 -34 -34 -34 -128 0 -100 17 -183 51 -250 26 -50
101 -133 151 -164 53 -34 150 -64 207 -64 43 0 50 -3 55 -24 11 -43 85 -125
142 -157 l55 -31 -3 -67 -3 -66 -83 -5 c-76 -5 -86 -7 -108 -33 l-24 -28 0
-256 0 -255 34 -34 34 -34 246 0 c262 0 292 5 316 49 6 12 10 119 10 275 l0
255 -24 28 c-22 26 -32 28 -108 33 l-83 5 -3 67 -3 67 40 21 c60 30 109 77
142 136 l29 51 68 5 c116 9 223 71 302 177 56 74 80 159 80 283 0 110 -12 147
-55 166 -19 9 -201 12 -711 12 l-686 0 -34 -34z m844 -352 c2 -174 2 -182 -21
-215 -32 -48 -89 -67 -139 -46 -66 28 -73 49 -76 244 -2 95 -1 180 2 189 5 12
25 14 118 12 l113 -3 3 -181z m-438 60 l0 -116 -37 7 c-104 19 -193 112 -193
200 l0 25 115 0 115 0 0 -116z m873 84 c-18 -102 -101 -183 -194 -190 l-34 -3
-3 113 -3 112 120 0 121 0 -7 -32z m-433 -1063 l0 -115 -115 0 -115 0 0 115 0
115 115 0 115 0 0 -115z"/>
<path d="M4638 3681 l-33 -29 0 -152 0 -152 33 -29 c44 -39 90 -39 134 0 l33
29 3 139 c3 115 1 143 -13 169 -32 60 -105 72 -157 25z"/>
<path d="M4670 3046 c-60 -19 -71 -57 -68 -219 l3 -139 33 -29 c44 -39 90 -39
134 0 l33 29 3 137 c4 172 -6 204 -75 224 -17 5 -42 4 -63 -3z"/>
<path d="M2721 1713 c-38 -36 -421 -700 -421 -731 0 -88 105 -135 169 -74 46
42 413 688 414 727 2 89 -99 137 -162 78z"/>
<path d="M4173 1730 c-30 -12 -57 -56 -57 -94 0 -38 369 -685 415 -728 69 -65
187 -1 164 89 -11 45 -383 685 -416 716 -30 28 -65 33 -106 17z"/>
<path d="M3455 1618 c-11 -6 -28 -20 -37 -32 -16 -19 -18 -73 -18 -717 l0
-696 24 -26 c44 -48 108 -48 152 0 l24 26 0 696 c0 644 -2 698 -18 717 -33 42
-86 55 -127 32z"/>
</g>
</svg>
