<?xml version="1.0" standalone="no"?>
<!DOCTYPE svg PUBLIC "-//W3C//DTD SVG 20010904//EN"
 "http://www.w3.org/TR/2001/REC-SVG-20010904/DTD/svg10.dtd">
<svg version="1.0" xmlns="http://www.w3.org/2000/svg"
 width="700.000000pt" height="700.000000pt" viewBox="0 0 700.000000 700.000000"
 preserveAspectRatio="xMidYMid meet">
<metadata>
Created by potrace 1.11, written by Peter Selinger 2001-2013
</metadata>
<g transform="translate(0.000000,700.000000) scale(0.100000,-0.100000)"
fill="#000000" stroke="none">
<path d="M3448 6874 c-15 -8 -32 -23 -38 -34 -6 -12 -10 -257 -10 -712 0 -641
2 -695 18 -714 49 -61 140 -55 170 11 16 34 17 1386 2 1416 -13 23 -61 49 -92
49 -13 -1 -35 -7 -50 -16z"/>
<path d="M2344 6102 c-32 -25 -47 -61 -40 -93 6 -32 377 -681 409 -716 59 -65
171 -19 171 71 0 38 -369 686 -415 729 -35 32 -92 36 -125 9z"/>
<path d="M4531 6093 c-46 -43 -415 -691 -415 -729 0 -90 112 -136 171 -71 29
31 400 678 409 711 22 90 -95 154 -165 89z"/>
<path d="M240 5016 c-93 -25 -182 -104 -216 -192 -18 -47 -19 -94 -19 -1329
l0 -1280 28 -57 c39 -80 111 -142 194 -168 65 -20 88 -20 3273 -20 3185 0
3208 0 3273 20 83 26 155 88 194 168 l28 57 0 1285 0 1285 -24 52 c-28 62
-103 136 -169 166 -39 17 -72 22 -184 25 -164 5 -197 0 -232 -35 -20 -19 -26
-36 -26 -67 1 -44 11 -62 50 -89 20 -14 49 -17 168 -17 l144 0 34 -34 34 -34
0 -1251 0 -1251 -29 -32 -29 -33 -960 -3 -960 -2 -4 81 c-3 74 -6 83 -31 105
-37 32 -71 39 -108 23 -48 -19 -69 -62 -69 -142 l0 -67 -2166 2 -2166 3 -29
33 -29 32 0 1250 0 1250 29 32 29 33 2166 3 2166 2 0 -65 c0 -39 6 -78 15 -95
16 -30 61 -60 90 -60 29 0 74 30 90 60 9 17 15 56 15 95 l0 65 618 0 c565 0
620 1 642 17 38 26 49 45 50 80 0 47 -18 80 -55 98 -30 13 -332 15 -2907 14
-2236 0 -2883 -3 -2918 -13z"/>
<path d="M530 3911 l0 -601 80 0 80 0 0 256 0 257 124 -5 c142 -7 192 -23 243
-81 17 -20 76 -124 130 -232 l98 -195 88 0 87 0 -105 209 c-107 213 -164 300
-216 330 -16 9 -29 19 -29 22 0 3 18 13 40 23 54 24 117 98 135 159 42 142 -5
313 -105 382 -81 56 -142 67 -407 73 l-243 4 0 -601z m465 448 c138 -38 182
-248 75 -350 -50 -47 -100 -59 -254 -59 l-126 0 0 210 0 210 133 0 c72 0 150
-5 172 -11z"/>
<path d="M1670 3910 l0 -600 80 0 80 0 0 600 0 600 -80 0 -80 0 0 -600z"/>
<path d="M2150 3910 l0 -600 80 0 80 0 0 285 0 285 240 0 240 0 0 70 0 70
-240 0 -240 0 0 175 0 175 265 0 265 0 0 70 0 70 -345 0 -345 0 0 -600z"/>
<path d="M3030 3923 c-123 -324 -226 -594 -228 -600 -3 -10 17 -13 81 -13 l84
0 55 153 54 152 270 0 269 0 54 -152 54 -153 84 0 c64 0 84 3 81 13 -3 6 -106
276 -229 600 l-224 587 -91 0 -90 0 -224 -587z m424 126 c58 -158 106 -289
106 -293 0 -3 -97 -6 -215 -6 -118 0 -215 3 -215 7 0 3 43 124 96 267 53 144
101 274 106 289 6 15 12 27 13 25 2 -2 51 -132 109 -289z"/>
<path d="M4638 4341 l-33 -29 -3 -122 c-2 -68 -1 -138 3 -157 10 -53 45 -83
97 -83 93 0 111 38 106 225 l-3 137 -33 29 c-44 39 -90 39 -134 0z"/>
<path d="M5074 4226 c-34 -34 -34 -34 -34 -128 0 -100 17 -183 51 -250 26 -50
101 -133 151 -164 53 -34 150 -64 207 -64 43 0 50 -3 55 -24 11 -43 85 -125
142 -157 l55 -31 -3 -67 -3 -66 -83 -5 c-76 -5 -86 -7 -108 -33 l-24 -28 0
-256 0 -255 34 -34 34 -34 246 0 c262 0 292 5 316 49 6 12 10 119 10 275 l0
255 -24 28 c-22 26 -32 28 -108 33 l-83 5 -3 67 -3 67 40 21 c60 30 109 77
142 136 l29 51 68 5 c116 9 223 71 302 177 56 74 80 159 80 283 0 110 -12 147
-55 166 -19 9 -201 12 -711 12 l-686 0 -34 -34z m844 -352 c2 -174 2 -182 -21
-215 -32 -48 -89 -67 -139 -46 -66 28 -73 49 -76 244 -2 95 -1 180 2 189 5 12
25 14 118 12 l113 -3 3 -181z m-438 60 l0 -116 -37 7 c-104 19 -193 112 -193
200 l0 25 115 0 115 0 0 -116z m873 84 c-18 -102 -101 -183 -194 -190 l-34 -3
-3 113 -3 112 120 0 121 0 -7 -32z m-433 -1063 l0 -115 -115 0 -115 0 0 115 0
115 115 0 115 0 0 -115z"/>
<path d="M4638 3681 l-33 -29 0 -152 0 -152 33 -29 c44 -39 90 -39 134 0 l33
29 3 139 c3 115 1 143 -13 169 -32 60 -105 72 -157 25z"/>
<path d="M1766 3094 c-62 -22 -102 -59 -133 -121 -25 -52 -28 -68 -28 -158 0
-84 4 -107 23 -147 44 -89 140 -148 242 -148 51 0 148 27 181 51 l29 20 0 120
0 119 -100 0 -100 0 0 -30 0 -30 60 0 60 0 0 -79 0 -79 -31 -11 c-41 -14 -139
-14 -176 0 -78 29 -119 119 -111 243 5 80 32 143 71 169 72 47 192 43 270 -9
l38 -25 -3 43 c-3 42 -4 43 -58 65 -65 26 -173 30 -234 7z"/>
<path d="M2210 2815 l0 -285 175 0 175 0 0 35 0 35 -135 0 -135 0 0 100 0 99
128 3 127 3 3 33 3 32 -130 0 -131 0 0 85 0 85 135 0 135 0 0 30 0 30 -175 0
-175 0 0 -285z"/>
<path d="M2682 2818 l3 -283 37 -3 38 -3 2 230 3 231 118 -230 119 -230 49 0
49 0 0 285 0 285 -35 0 -35 0 -2 -232 -3 -233 -119 233 -120 232 -53 0 -53 0
2 -282z"/>
<path d="M4670 3046 c-60 -19 -71 -57 -68 -219 l3 -139 33 -29 c44 -39 90 -39
134 0 l33 29 3 137 c4 172 -6 204 -75 224 -17 5 -42 4 -63 -3z"/>
<path d="M2721 1713 c-38 -36 -421 -700 -421 -731 0 -88 105 -135 169 -74 46
42 413 688 414 727 2 89 -99 137 -162 78z"/>
<path d="M4173 1730 c-30 -12 -57 -56 -57 -94 0 -38 369 -685 415 -728 69 -65
187 -1 164 89 -11 45 -383 685 -416 716 -30 28 -65 33 -106 17z"/>
<path d="M3455 1618 c-11 -6 -28 -20 -37 -32 -16 -19 -18 -73 -18 -717 l0
-696 24 -26 c44 -48 108 -48 152 0 l24 26 0 696 c0 644 -2 698 -18 717 -33 42
-86 55 -127 32z"/>
</g>
</svg>
