<?xml version="1.0" encoding="UTF-8" standalone="no"?>
<svg
   xmlns:dc="http://purl.org/dc/elements/1.1/"
   xmlns:cc="http://creativecommons.org/ns#"
   xmlns:rdf="http://www.w3.org/1999/02/22-rdf-syntax-ns#"
   xmlns:svg="http://www.w3.org/2000/svg"
   xmlns="http://www.w3.org/2000/svg"
   xmlns:sodipodi="http://sodipodi.sourceforge.net/DTD/sodipodi-0.dtd"
   xmlns:inkscape="http://www.inkscape.org/namespaces/inkscape"
   height="512pt"
   viewBox="0 -8 512 512"
   width="512pt"
   version="1.1"
   id="svg38"
   sodipodi:docname="rifa.svg"
   inkscape:version="0.92.4 5da689c313, 2019-01-14">
  <metadata
     id="metadata44">
    <rdf:RDF>
      <cc:Work
         rdf:about="">
        <dc:format>image/svg+xml</dc:format>
        <dc:type
           rdf:resource="http://purl.org/dc/dcmitype/StillImage" />
      </cc:Work>
    </rdf:RDF>
  </metadata>
  <defs
     id="defs42" />
  <sodipodi:namedview
     pagecolor="#ffffff"
     bordercolor="#666666"
     borderopacity="1"
     objecttolerance="10"
     gridtolerance="10"
     guidetolerance="10"
     inkscape:pageopacity="0"
     inkscape:pageshadow="2"
     inkscape:window-width="1872"
     inkscape:window-height="1024"
     id="namedview40"
     showgrid="false"
     inkscape:zoom="0.69140625"
     inkscape:cx="317.4181"
     inkscape:cy="327.40215"
     inkscape:window-x="1072"
     inkscape:window-y="28"
     inkscape:window-maximized="1"
     inkscape:current-layer="svg38" />
  <path
     d="m488.46875 143.773438h-464.9375c-8.851562 0-16.03125 7.179687-16.03125 16.035156v176.351562c0 8.855469 7.179688 16.035156 16.03125 16.035156h464.9375c8.851562 0 16.03125-7.179687 16.03125-16.035156v-176.351562c0-8.855469-7.179688-16.035156-16.03125-16.035156zm0 0"
     fill="#ffe07d"
     id="path2" />
  <path
     d="m408.304688 272.03125h32.066406v32.066406h-32.066406zm0 0"
     fill="#e2a975"
     id="path4" />
  <path
     d="m424.339844 247.984375c-8.855469 0-16.03125-7.179687-16.03125-16.03125v-32.066406h32.0625v32.066406c0 8.851563-7.179688 16.03125-16.03125 16.03125zm0 0"
     fill="#fff"
     id="path6" />
  <path
     d="m31.546875 247.984375v-104.210937h-8.015625c-8.851562 0-16.03125 7.179687-16.03125 16.03125v176.355468c0 8.855469 7.179688 16.03125 16.03125 16.03125h464.9375c8.851562 0 16.03125-7.175781 16.03125-16.03125v-8.015625h-392.789062c-44.273438 0-80.164063-35.886719-80.164063-80.160156zm0 0"
     fill="#ffd064"
     id="path8" />
  <path
     d="m488.46875 136.273438h-16.03125c-4.140625 0-7.5 3.359374-7.5 7.5 0 4.144531 3.359375 7.5 7.5 7.5h16.03125c4.703125 0 8.53125 3.828124 8.53125 8.535156v176.351562c0 4.707032-3.828125 8.53125-8.53125 8.53125h-136.792969v-8.53125c0-4.140625-3.355469-7.5-7.5-7.5-4.140625 0-7.5 3.359375-7.5 7.5v8.53125h-313.144531c-4.703125 0-8.53125-3.828125-8.53125-8.53125v-176.351562c0-4.707032 3.828125-8.535156 8.53125-8.535156h313.144531v8.535156c0 4.140625 3.359375 7.5 7.5 7.5 4.144531 0 7.5-3.359375 7.5-7.5v-8.535156h88.691407c4.144531 0 7.5-3.355469 7.5-7.5 0-4.140626-3.355469-7.5-7.5-7.5h-416.835938c-12.972656 0-23.53125 10.558593-23.53125 23.535156v176.351562c0 12.976563 10.558594 23.53125 23.53125 23.53125h464.9375c12.976562 0 23.53125-10.554687 23.53125-23.53125v-176.351562c0-12.976563-10.558594-23.535156-23.53125-23.535156zm0 0"
     id="path10" />
  <path
     d="m351.675781 239.96875c0-4.144531-3.355469-7.5-7.5-7.5-4.140625 0-7.5 3.355469-7.5 7.5v16.03125c0 4.140625 3.359375 7.5 7.5 7.5 4.144531 0 7.5-3.359375 7.5-7.5zm0 0"
     id="path12" />
  <path
     d="m351.675781 191.871094c0-4.140625-3.355469-7.5-7.5-7.5-4.140625 0-7.5 3.359375-7.5 7.5v16.03125c0 4.144531 3.359375 7.5 7.5 7.5 4.144531 0 7.5-3.355469 7.5-7.5zm0 0"
     id="path14" />
  <path
     d="m344.175781 280.566406c-4.140625 0-7.5 3.355469-7.5 7.5v16.03125c0 4.140625 3.359375 7.5 7.5 7.5 4.144531 0 7.5-3.359375 7.5-7.5v-16.03125c0-4.144531-3.355469-7.5-7.5-7.5zm0 0"
     id="path16" />
  <path
     d="m256 111.195312c4.140625 0 7.5-3.359374 7.5-7.5v-96.195312c0-4.140625-3.359375-7.5-7.5-7.5s-7.5 3.359375-7.5 7.5v96.191406c0 4.144532 3.359375 7.503906 7.5 7.503906zm0 0"
     id="path24" />
  <path
     d="m304.667969 118.203125c1.179687.679687 2.46875 1.003906 3.738281 1.003906 2.59375 0 5.117188-1.34375 6.503906-3.753906l27.746094-48.089844c2.070312-3.589843.839844-8.175781-2.746094-10.246093-3.589844-2.070313-8.175781-.839844-10.246094 2.75l-27.746093 48.09375c-2.070313 3.585937-.839844 8.171874 2.75 10.242187zm0 0"
     id="path26" />
  <path
     d="m197.089844 115.457031c1.386718 2.40625 3.910156 3.753907 6.503906 3.753907 1.269531 0 2.558594-.324219 3.738281-1.003907 3.589844-2.070312 4.820313-6.65625 2.75-10.246093l-27.746093-48.09375c-2.070313-3.585938-6.65625-4.816407-10.246094-2.75-3.585938 2.070312-4.816406 6.660156-2.75 10.246093zm0 0"
     id="path28" />
  <path
     d="m256 384.773438c-4.140625 0-7.5 3.359374-7.5 7.5v96.195312c0 4.140625 3.359375 7.5 7.5 7.5s7.5-3.359375 7.5-7.5v-96.195312c0-4.140626-3.359375-7.5-7.5-7.5zm0 0"
     id="path30" />
  <path
     d="m207.332031 377.765625c-3.585937-2.070313-8.171875-.839844-10.242187 2.75l-27.75 48.09375c-2.070313 3.585937-.835938 8.171875 2.75 10.242187 1.179687.683594 2.46875 1.007813 3.742187 1.007813 2.589844 0 5.113281-1.347656 6.503907-3.753906l27.746093-48.09375c2.070313-3.589844.839844-8.175781-2.75-10.246094zm0 0"
     id="path32" />
  <path
     d="m314.910156 380.511719c-2.070312-3.589844-6.65625-4.820313-10.246094-2.75-3.585937 2.070312-4.816406 6.65625-2.746093 10.246093l27.746093 48.09375c1.390626 2.40625 3.910157 3.75 6.503907 3.75 1.269531 0 2.558593-.324218 3.738281-1.003906 3.589844-2.070312 4.820312-6.65625 2.75-10.246094zm0 0"
     id="path34" />
  <path
     d="m446.636719 239.453125h1.75c17.394531 0 31.546875-14.152344 31.546875-31.550781v-8.015625c0-4.140625-3.355469-7.5-7.5-7.5h-96.191406c-4.144532 0-7.5 3.359375-7.5 7.5v8.015625c0 17.398437 14.152343 31.550781 31.546874 31.550781h1.75c2.34375 6.949219 7.847657 12.453125 14.800782 14.800781v10.277344h-8.53125c-4.144532 0-7.5 3.359375-7.5 7.5v32.066406c0 4.140625 3.355468 7.5 7.5 7.5h32.0625c4.140625 0 7.5-3.359375 7.5-7.5v-32.066406c0-4.140625-3.359375-7.5-7.5-7.5h-8.53125v-10.277344c6.949218-2.347656 12.453125-7.851562 14.796875-14.800781zm-13.765625 57.144531h-17.0625v-17.066406h17.0625zm32.066406-88.695312c0 9.125-7.425781 16.550781-16.550781 16.550781h-.515625v-17.066406h17.066406zm-81.195312 0v-.515625h17.066406v17.066406h-.519532c-9.125 0-16.546874-7.425781-16.546874-16.550781zm32.066406-.515625h17.0625v24.566406c0 4.703125-3.828125 8.53125-8.53125 8.53125s-8.53125-3.828125-8.53125-8.53125zm0 0"
     id="path36" />
  <g
     id="g863"
     transform="translate(-2.1694914,-0.57430249)">
    <text
       id="text853"
       y="262.36743"
       x="29.094059"
       style="font-style:normal;font-weight:normal;font-size:119.84133911px;line-height:1.25;font-family:sans-serif;letter-spacing:0px;word-spacing:0px;fill:#000000;fill-opacity:1;stroke:none;stroke-width:2.99603367"
       xml:space="preserve"><tspan
         style="font-style:normal;font-variant:normal;font-weight:normal;font-stretch:normal;line-height:1.25;font-family:'Gotham Rounded';-inkscape-font-specification:'Gotham Rounded';stroke-width:2.99603367"
         y="262.36743"
         x="29.094059"
         id="tspan851"
         sodipodi:role="line">RIFA</tspan></text>
    <text
       transform="scale(0.98008267,1.0203221)"
       id="text857"
       y="312.91058"
       x="118.53697"
       style="font-style:normal;font-weight:normal;font-size:55.83414841px;line-height:1.25;font-family:sans-serif;letter-spacing:0px;word-spacing:0px;fill:#000000;fill-opacity:1;stroke:none;stroke-width:1.39585376"
       xml:space="preserve"><tspan
         style="font-style:normal;font-variant:normal;font-weight:normal;font-stretch:normal;font-family:'Gotham Rounded';-inkscape-font-specification:'Gotham Rounded';fill:#000000;stroke-width:1.39585376"
         y="312.91058"
         x="118.53697"
         id="tspan855"
         sodipodi:role="line">GEN</tspan></text>
  </g>
</svg>
